
<svg width="550" height="550" viewBox="0 0 550 550" fill="none" xmlns="http://www.w3.org/2000/svg">
  <path d="M50 250 C 150 150, 250 350, 350 150 C 450 50, 550 250, 650 150" stroke="#8B5CF6" stroke-width="2" stroke-linecap="round" fill="none" />
  <path d="M50 300 C 150 200, 250 400, 350 200 C 450 100, 550 300, 650 200" stroke="#8B5CF6" stroke-width="2" stroke-linecap="round" fill="none" />
  <path d="M50 350 C 150 250, 250 450, 350 250 C 450 150, 550 350, 650 250" stroke="#8B5CF6" stroke-width="2" stroke-linecap="round" fill="none" />
  <path d="M50 200 C 150 100, 250 300, 350 100 C 450 0, 550 200, 650 100" stroke="#8B5CF6" stroke-width="2" stroke-linecap="round" fill="none" />
  <path d="M50 150 C 150 50, 250 250, 350 50 C 450 -50, 550 150, 650 50" stroke="#8B5CF6" stroke-width="2" stroke-linecap="round" fill="none" />
</svg>
